<svg xmlns="http://www.w3.org/2000/svg" viewBox="0 0 128 24" xmlns:v="https://vecta.io/nano"><path d="M121.2 6.2a1.69 1.69 0 0 0-1 .3c-.3.2-.5.6-.5.9 0 1 1 1 2.8 1.5 1.5.2 2.9.8 4.1 1.7 1 .9 1.5 2.2 1.5 3.6s-.5 2.7-1.5 3.7c-1.3 1.3-3.2 2.1-5.1 2.1-3.9 0-6.4-2-7.1-5.2l4.3-.9c.2 1.4 1.5 2.3 2.9 2.1 1.1 0 1.7-.5 1.7-1.2 0-1.2-1.1-1.2-3.1-1.8-3.5-1-5.1-2.3-5.1-5.1 0-3.2 2.5-5.4 6.6-5.4 2.7-.2 5.2 1.5 6 4l-3.9 1.2c-.4-.9-1.4-1.6-2.6-1.5zM106.9 20l-2.1-9.7-2 9.7h-4.1L94.5 3H99l2.1 9.8 2.1-9.8h3.8l2.2 9.7 2.2-9.7h3.7L111 20h-4.1zM82.1 3h11.7v3.9h-7.2v2.6h5.8V13h-5.8v3h7.2v4H82.1V3zm-11.4 7.1V20h-4.5V3h5.1l5.1 8.5V3H81v17h-4.3l-6-9.9zm-15 9.9l-2.6-4.3-2.6 4.3H45l5.3-8.8L45.2 3h5.7L53 6.6 55.2 3h5.7L56 11.1l5.5 8.9h-5.8zm-17.2 0c-4.9.1-8.9-3.7-9-8.5.1-4.8 4.2-8.5 9-8.4 4.9-.1 8.9 3.6 9 8.4-.1 4.8-4.1 8.6-9 8.5zm0-13.7c-.9 0-1.5.7-1.6 1.5v7.1c0 .4.2.8.5 1.1s.7.4 1.1.4c.8 0 1.6-.6 1.6-1.4V7.9a1.58 1.58 0 0 0-1.6-1.6zM23.4 10h5.1v4h-5.1v6h-5.1V3h11.1l.3 4.5h-6.3V10zm-6.5-7.7v3.8l-2.5 2.8c1 .9 1.8 1.8 2.6 2.9v1.8c-.9-1.5-2-2.8-3.3-3.9L.2 24l11-16.3c-.8-.5-1.6-1-2.4-1.4L.2 24 5 5c-1.6-.4-3.3-.7-5-.7v-1c1.8 0 3.5.2 5.2.6l1-4h5.6L9.2 5.4c.9.4 1.7.9 2.6 1.4L16.4 0h6.3l-2.2 2.3h-3.6zM20.6 21c.1.7.1 1.4.1 2.1v.2.1h-1v-.1-.2c0-.7 0-1.4-.1-2.1h1z" fill="#036"/></svg>